<?xml version="1.0" encoding="utf-8"?>
<!-- Generator: Adobe Illustrator 26.0.1, SVG Export Plug-In . SVG Version: 6.00 Build 0)  -->
<svg version="1.1" id="Layer_1" xmlns="http://www.w3.org/2000/svg" xmlns:xlink="http://www.w3.org/1999/xlink" x="0px" y="0px"
	 viewBox="0 0 1000 1000" style="enable-background:new 0 0 1000 1000;" xml:space="preserve">
<style type="text/css">
	.st0{fill:#111517;}
	.st1{fill:#0C6EAF;}
	.st2{fill:#62C3E7;}
	.st3{fill:#5BADC7;}
	.st4{fill:#FDFCFD;}
</style>
<g>
	<path class="st0" d="M840.76,132.41c-7.28,17.91-14.03,36.06-21.94,53.69c-21.15,47.16-57.65,81.58-96.23,114.11
		c-78.91,66.53-168.63,114.1-264.4,151.29c-41.11,15.96-82.83,29.86-126.17,37.75c-27.07,4.93-54.7,7.03-82.17,9.41
		c-18.32,1.59-36.78,1.59-55.19,1.98c-12.55,0.27-21.56-7.41-22.33-18.36c-1.08-15.39,5.11-24.16,19.35-25.9
		c12.73-1.55,25.69-1.39,38.36-3.28c36.93-5.49,74.12-9.98,110.54-17.9c52.14-11.33,103.11-27.21,152.7-47.17
		c93.25-37.55,179.83-86.32,254.96-153.78c32.89-29.54,60.78-63.73,87.11-99.16c0.98-1.32,2.19-2.45,3.3-3.67
		C839.35,131.74,840.05,132.08,840.76,132.41z"/>
	<path class="st0" d="M380.29,673.13c27.55,5.2,42.23,18.99,45,40.34c3.9,30.02-6.65,53.53-32.05,64.62
		c-13.03,5.68-27.93,9.16-42.13,9.66c-37.4,1.31-74.87,0.44-112.31,0.41c-0.82,0-1.64-0.41-3.05-0.79c0-74.17,0-148.36,0-223.15
		c1.7-0.12,3.92-0.41,6.13-0.41c34.52-0.03,69.04-0.33,103.55,0.12c18.44,0.24,35.53,5.35,50.22,17.35
		c19.82,16.19,27.42,46.31,14.95,67.64c-4.59,7.85-13.33,13.33-20.46,19.57C388.1,670.25,385.1,670.92,380.29,673.13z
		 M285.26,744.66c23.42,0,46.16,0.79,68.81-0.26c16.57-0.77,24.47-10.72,23.79-26.26c-0.61-13.93-9.65-22.52-25.69-22.86
		c-22.16-0.47-44.34-0.12-66.91-0.12C285.26,711.83,285.26,728.41,285.26,744.66z M285.32,656.82c14.71,0,29.24,0.25,43.76-0.11
		c6.64-0.17,13.42-0.86,19.82-2.52c12.63-3.28,18.3-12.74,16.95-26.6c-1.13-11.56-9.05-19.56-21.52-19.89
		c-19.5-0.53-39.02-0.14-59.01-0.14C285.32,623.71,285.32,639.91,285.32,656.82z"/>
	<path class="st0" d="M783.5,641.12c15.82-25.09,30.79-49,46.05-72.71c1.39-2.15,4.61-4.37,7.02-4.42
		c18.42-0.37,36.84-0.2,56.93-0.2c-26.98,37.81-53.25,74.62-79.77,111.77c26.73,36.74,53.47,73.49,81,111.34
		c-3.72,0.43-6.44,0.99-9.16,1.01c-14.63,0.09-29.27-0.19-43.89,0.15c-5.25,0.12-8.31-1.4-11.33-5.96
		c-15.43-23.33-31.35-46.35-47.75-70.43c-11.61,17.78-24.16,34.04-33.43,52c-9.84,19.08-22.41,28.34-44.44,24.55
		c-10.4-1.79-21.36-0.31-33.91-0.31c27.76-38.34,54.38-75.1,81.27-112.24c-26.08-36.98-52.04-73.79-78.87-111.84
		c20.54,0,39.96-0.16,59.37,0.24c2.03,0.04,4.52,3.06,5.91,5.26C753.33,592.74,767.97,616.27,783.5,641.12z"/>
	<path class="st0" d="M527.63,696.02c0,16.7,0,32.72,0,49.44c34.78,0,69.69,0,104.99,0c0,14.31,0,27.97,0,42.23
		c-51.88,0-103.53,0-155.8,0c0-74.29,0-148.7,0-223.53c51.91,0,103.84,0,155.88,0c0,14.32,0,28.49,0,43.19c-35.1,0-69.79,0-105,0
		c0,15.87,0,31.23,0,47.34c29.93,0,59.91,0,90.36,0c0,14.04,0,27.33,0,41.33C588.11,696.02,558.1,696.02,527.63,696.02z"/>
	<path class="st1" d="M809.5,26.85c0.12,31.54,0.29,63.09,0.24,94.63c0,1.95-1.49,4.13-2.78,5.83
		c-32.26,42.51-69.48,80.16-111.26,113.32c-0.94,0.75-2.28,0.99-3.44,1.47c-0.08-0.8-0.15-1.6-0.23-2.41
		c0.47,0.22,0.95,0.45,1.42,0.68c0.3-0.7,0.86-1.41,0.86-2.11c-0.2-47.09-0.46-94.18-0.69-141.27c-0.04-8.33-0.01-16.65-0.01-24.98
		c-1.33,2.93-1.33,5.83-1.33,8.73c-0.05,38.6-0.11,77.21-0.16,115.81c-0.63-48.77-1.27-97.54-1.87-146.32
		c-0.1-8.47-0.22-16.96,0.02-25.42C690.71,9.28,700.33-0.04,715.8,0c24.54,0.06,49.07,0.24,73.61,0.37
		c1.87,1.47,3.53,3.48,5.65,4.33c7.99,3.18,12.18,8.59,11.97,17.41C806.99,23.67,808.64,25.27,809.5,26.85z"/>
	<path class="st2" d="M533.81,154.66c0.12-2.93,0.25-5.87,0.37-8.8c1.68-0.98,3.56-1.71,4.99-2.97c6.92-6.07,14.04-9.95,24.11-9.47
		c19.84,0.95,39.76,0.26,59.64,0.28c15.61,0.02,23.61,7.93,23.63,23.51c0.04,31.29,0,62.58,0,93.87c0,23.27,0.02,23.29-20.02,35.03
		c-1.99,1.16-4.44,1.63-6.24,3c-6.43,4.89-16.06,5.63-19.27,14.71c-2.69,1.8-5.39,3.61-8.08,5.42c-6,2.35-12.18,4.33-17.96,7.13
		c-13.62,6.61-27.06,13.62-40.57,20.47c-0.1-2.33-0.29-4.66-0.29-6.98C534.02,271.47,533.92,213.07,533.81,154.66z"/>
	<path class="st2" d="M490.59,351.85c-1.47,2.67-2.35,7.02-4.49,7.76c-28.31,9.89-56.79,19.32-85.27,28.73
		c-4.52,1.5-9.26,2.35-13.9,3.5c-3.3,0.34-6.61,0.68-10.03,1.03c-0.9-33.24-1.78-65.75-2.66-98.26c-0.04-12.12-0.72-24.29,0.2-36.33
		c0.36-4.75,4.27-9.23,6.56-13.84c1.96-0.56,3.91-1.56,5.87-1.61c27.92-0.68,55.86-1.97,83.76-1.43
		c11.33,0.22,17.86,10.19,17.86,21.81c0.02,26.26-0.06,52.52,0.1,78.77C488.62,345.28,489.9,348.56,490.59,351.85z"/>
	<path class="st0" d="M651.22,999.91c-23.94,1.62-60.55-18.18-67.12-58.19c-8.25-50.2,23.39-84.55,68.44-86.54
		c26.34-1.16,49.53,6.17,65.41,27.88c17.67,24.16,18.59,51.45,6.44,77.95C711.78,988.51,687.56,999.05,651.22,999.91z
		 M657.75,883.32c-21.02-1.44-42.3,14.3-42.71,43.86c-0.36,25.54,17.94,44.92,42.17,45.09c24.07,0.17,41.93-18.97,41.98-44.99
		C699.24,901.26,682.37,883.37,657.75,883.32z"/>
	<path class="st0" d="M431.86,998.9c0-47.45,0-94.15,0-141.9c20.25,0,40.3-0.42,60.32,0.18c9.77,0.29,20.07,0.89,29.08,4.21
		c14.91,5.49,24.14,16.73,25.42,33.52c1.52,19.95-3.73,36.39-22.54,46.34c-1.77,0.94-3.59,1.8-6,3
		c11.79,17.99,23.51,35.87,36.03,54.98c-11.61,0-21.95,0.28-32.24-0.23c-2.18-0.11-4.83-2.75-6.21-4.89
		c-8.03-12.48-16.24-24.9-23.36-37.89c-3.51-6.4-7.67-8.58-14.49-7.92c-4.58,0.45-9.23,0.08-14.72,0.08c0,17.23,0,33.72,0,50.52
		C452.39,998.9,442.52,998.9,431.86,998.9z M463.12,922.63c13.41-0.72,26-0.41,38.22-2.37c9.73-1.57,14.13-9.83,13.47-20.22
		c-0.56-8.89-5.65-15.41-15.18-16.18c-12.01-0.96-24.15-0.23-36.52-0.23C463.12,896.66,463.12,908.77,463.12,922.63z"/>
	<path class="st0" d="M168.62,787.52c-16.86,0-33.13,0-50.02,0c0-74.45,0-148.76,0-223.42c16.57,0,33.1,0,50.02,0
		C168.62,638.32,168.62,712.44,168.62,787.52z"/>
	<path class="st2" d="M249.88,423.07c-9.71,0.82-19.42,1.88-29.15,2.28c-2.01,0.08-4.12-2.25-6.18-3.48
		c0.63-1.84,1.72-3.65,1.81-5.51c1.49-29.31-3.21-58.86,3.42-87.98c0,0-0.06,0.05-0.06,0.05c1.79-1.78,3.58-3.55,5.36-5.33
		c0,0-0.08,0.08-0.08,0.08c4.01-0.58,8.01-1.65,12.02-1.67c23.65-0.15,47.31-0.32,70.96,0.07c13.04,0.22,20.74,8.84,20.78,22
		c0.06,18.69-0.19,37.38,0.12,56.07c0.09,5.39-1.58,7.89-6.91,8.8c-18.01,3.06-35.99,6.28-53.93,9.73
		C261.91,419.38,255.94,421.42,249.88,423.07z"/>
	<path class="st0" d="M276.73,858.7c25.88,0,51.73-2.2,77.01,0.61c26.39,2.93,39.54,24.27,36.83,52.25
		c-2.44,25.2-21.43,43.33-46.19,43.83c-11.67,0.24-23.35,0.04-35.83,0.04c0,14.55,0,28.71,0,43.28c-10.9,0-21.01,0-31.82,0
		C276.73,951.82,276.73,904.94,276.73,858.7z M308.34,883.42c0,16.33,0,31.61,0,46.93c9.3,0,18.01,0.11,26.72-0.07
		c2.56-0.05,5.16-0.68,7.64-1.4c11.59-3.36,17.08-12.95,15.84-27.48c-0.87-10.21-8.37-17.28-20.1-17.88
		C328.59,883.01,318.7,883.42,308.34,883.42z"/>
	<path class="st3" d="M601.05,303.83c3.21-9.08,12.84-9.82,19.27-14.71c1.8-1.37,4.25-1.83,6.24-3
		c20.04-11.75,20.03-11.76,20.02-35.03c0-31.29,0.04-62.58,0-93.87c-0.02-15.58-8.03-23.49-23.63-23.51
		c-19.89-0.02-39.8,0.66-59.64-0.28c-10.07-0.48-17.2,3.4-24.11,9.47c-1.43,1.26-3.32,1.99-4.99,2.97
		c0.49-6.61,9.67-15.25,17.7-15.35c26.01-0.31,52.03-0.44,78.03-0.01c11.05,0.19,21.11,11.23,21.19,22.98
		c0.27,38.58,0.16,77.16-0.03,115.73c-0.01,2.63-1.08,6.46-2.98,7.69c-14.65,9.49-29.62,18.49-44.55,27.55
		C603.02,304.77,601.89,304.06,601.05,303.83z"/>
	<path class="st3" d="M249.88,423.07c6.05-1.65,12.03-3.69,18.17-4.87c17.94-3.45,35.92-6.67,53.93-9.73c5.33-0.91,7-3.41,6.91-8.8
		c-0.31-18.69-0.06-37.38-0.12-56.07c-0.04-13.16-7.74-21.78-20.78-22c-23.65-0.4-47.31-0.22-70.96-0.07
		c-4.01,0.02-8.02,1.09-12.02,1.67c3.34-1.26,6.67-3.58,10.03-3.62c25.15-0.3,50.31-0.33,75.46-0.07
		c11.98,0.12,21.14,8.23,21.43,19.89c0.56,22.77,0.16,45.56,0.16,70.75C304.72,414.45,277.3,418.76,249.88,423.07z"/>
	<path class="st3" d="M490.59,351.85c-0.69-3.29-1.97-6.57-1.99-9.86c-0.17-26.26-0.08-52.52-0.1-78.77
		c-0.01-11.62-6.53-21.59-17.86-21.81c-27.9-0.54-55.84,0.76-83.76,1.43c-1.97,0.05-3.91,1.05-5.87,1.61
		c3.29-1.9,6.56-5.39,9.89-5.45c26.9-0.47,53.8-0.55,80.7-0.2c10.51,0.14,18.85,8.71,18.94,19.19
		C490.79,289.28,490.6,320.57,490.59,351.85z"/>
	<path class="st3" d="M374.24,294.62c0.88,32.51,1.76,65.01,2.66,98.26c3.42-0.35,6.72-0.69,10.03-1.03
		c-3.87,2.07-7.73,4.14-12.45,6.66c-0.74-3.23-1.41-4.81-1.43-6.4c-0.32-30.11-0.61-60.23-0.73-90.34
		C372.31,299.39,373.57,297,374.24,294.62z"/>
	<path class="st1" d="M533.81,154.66c0.1,58.4,0.2,116.8,0.32,175.21c0,2.33,0.19,4.66,0.3,6.99c-0.65,0.07-1.31,0.15-1.96,0.22
		c0-57.77-0.02-115.54,0.05-173.31C532.52,160.73,533.36,157.7,533.81,154.66z"/>
	<path class="st0" d="M692.13,196.55c0.05-38.6,0.11-77.21,0.16-115.81c0-2.9,0-5.79,1.33-8.73c0,8.33-0.04,16.65,0.01,24.98
		c0.23,47.09,0.49,94.18,0.69,141.27c0,0.7-0.56,1.41-0.86,2.11c-0.47-0.23-0.95-0.46-1.42-0.68
		C692.07,225.31,692.1,210.93,692.13,196.55z"/>
	<path class="st3" d="M532.47,337.08c0.65-0.07,1.31-0.14,1.96-0.22c13.51-6.85,26.94-13.86,40.57-20.48
		c5.78-2.81,11.96-4.78,17.96-7.13c-13.88,7.94-27.73,15.95-41.68,23.79c-3.97,2.23-8.1,4.37-12.41,5.72
		C537.09,339.32,534.62,337.7,532.47,337.08z"/>
	<path class="st3" d="M219.79,328.39c-6.63,29.12-1.93,58.67-3.42,87.98c-0.09,1.86-1.19,3.67-1.81,5.51
		c-0.03-26.82-0.29-53.64,0.16-80.45C214.78,337.05,218.02,332.73,219.79,328.39z"/>
	<path class="st0" d="M809.5,26.85c-0.87-1.58-2.52-3.18-2.48-4.74c0.21-8.82-3.98-14.23-11.97-17.41
		c-2.12-0.84-3.78-2.85-5.65-4.33C805.97,5.75,809.31,10.16,809.5,26.85z"/>
	<path class="st3" d="M225.09,323.11c-1.79,1.78-3.58,3.55-5.36,5.33C221.51,326.66,223.3,324.89,225.09,323.11z"/>
	<path class="st4" d="M285.26,744.66c0-16.25,0-32.83,0-49.5c22.57,0,44.75-0.35,66.91,0.12c16.05,0.34,25.09,8.93,25.69,22.86
		c0.68,15.54-7.23,25.49-23.79,26.26C331.41,745.45,308.67,744.66,285.26,744.66z"/>
	<path class="st4" d="M285.32,656.82c0-16.92,0-33.11,0-49.27c19.99,0,39.51-0.39,59.01,0.14c12.47,0.34,20.39,8.33,21.52,19.89
		c1.35,13.87-4.31,23.32-16.95,26.6c-6.4,1.66-13.19,2.36-19.82,2.52C314.57,657.08,300.04,656.82,285.32,656.82z"/>
	<path class="st4" d="M657.75,883.32c24.62,0.04,41.49,17.94,41.44,43.96c-0.05,26.02-17.91,45.16-41.98,44.99
		c-24.23-0.17-42.53-19.55-42.17-45.09C615.45,897.62,636.73,881.88,657.75,883.32z"/>
	<path class="st4" d="M463.12,922.63c0-13.86,0-25.98,0-39.01c12.37,0,24.51-0.73,36.52,0.23c9.52,0.76,14.62,7.28,15.18,16.18
		c0.65,10.39-3.74,18.66-13.47,20.22C489.13,922.23,476.54,921.91,463.12,922.63z"/>
	<path class="st4" d="M308.34,883.42c10.36,0,20.26-0.4,30.11,0.1c11.73,0.6,19.24,7.67,20.1,17.88
		c1.23,14.52-4.25,24.12-15.84,27.48c-2.48,0.72-5.08,1.35-7.64,1.4c-8.71,0.17-17.42,0.07-26.72,0.07
		C308.34,915.03,308.34,899.75,308.34,883.42z"/>
</g>
</svg>
